<?xml version="1.0" encoding="UTF-8" standalone="no"?>
<svg width="210mm" height="297mm" viewBox="0 0 210 297" version="1.1" xmlns="http://www.w3.org/2000/svg">
  <style>.t{font: 5px sans-serif;} .s{fill:none;stroke:#000;stroke-width:0.6;}</style>
  <text class="t" x="105" y="12" text-anchor="middle">Plantillas CC0 para máscaras (A4)</text>
  <ellipse class="s" cx="55" cy="80" rx="24" ry="32"/>
  <ellipse class="s" cx="47" cy="78" rx="4" ry="6"/>
  <ellipse class="s" cx="63" cy="78" rx="4" ry="6"/>
  <path class="s" d="M50,90 C55,92 60,92 65,90"/>
  <text class="t" x="55" y="115" text-anchor="middle">Rostro básico</text>
  <circle class="s" cx="150" cy="80" r="16"/>
  <circle class="s" cx="150" cy="80" r="20"/>
  <g class="s">
    <line x1="150" y1="80" x2="150" y2="60"/><line x1="150" y1="80" x2="150" y2="100"/>
    <line x1="150" y1="80" x2="130" y2="80"/><line x1="150" y1="80" x2="170" y2="80"/>
    <line x1="150" y1="80" x2="136" y2="66"/><line x1="150" y1="80" x2="164" y2="66"/>
    <line x1="150" y1="80" x2="136" y2="94"/><line x1="150" y1="80" x2="164" y2="94"/>
  </g>
  <text class="t" x="150" y="115" text-anchor="middle">Sol (Inti)</text>
  <rect class="s" x="40" y="170" width="40" height="30" rx="6" ry="6"/>
  <circle class="s" cx="50" cy="165" r="6"/>
  <circle class="s" cx="70" cy="165" r="6"/>
  <text class="t" x="60" y="208" text-anchor="middle">Jaguar</text>
  <rect class="s" x="125" y="160" width="50" height="40"/>
  <text class="t" x="150" y="208" text-anchor="middle">Dibuja tu diseño</text>
</svg>